<svg width="582" height="249" viewBox="0 0 582 249" fill="none" xmlns="http://www.w3.org/2000/svg">
<path fill-rule="evenodd" clip-rule="evenodd" d="M186.042 212.5C168.686 230.386 144.391 241.5 117.5 241.5C90.6091 241.5 66.314 230.386 48.958 212.5H39.4974C58.2977 234.531 86.2675 248.5 117.5 248.5C148.732 248.5 176.702 234.531 195.503 212.5H186.042ZM28.4219 111.5C42.2552 75.8076 76.9221 50.5 117.5 50.5C158.078 50.5 192.745 75.8076 206.578 111.5H214.049C199.884 71.8635 162.005 43.5 117.5 43.5C72.9955 43.5 35.1157 71.8635 20.9509 111.5H28.4219Z" fill="white"/>
<path fill-rule="evenodd" clip-rule="evenodd" d="M99.152 111.5L80 57.0288L85.5396 53.5L105.859 111.5H99.152ZM135.015 213.5L143.453 237.5H150L141.592 213.5H135.015Z" fill="white"/>
<path fill-rule="evenodd" clip-rule="evenodd" d="M50.4686 211.32L48.5 213.362L51.543 220L53.5717 216.936L58.9894 211.32H50.4686ZM147.913 110.221H156.509L190 75.5H181.378L147.913 110.221Z" fill="white"/>
<path d="M99 107L98 112.5H124L123.5 112L102.5 107H99Z" fill="white"/>
<path d="M21.06 175.19C20.8 178.934 19.604 181.898 17.472 184.082C15.34 186.214 12.714 187.28 9.594 187.28C6.474 187.28 3.536 187.02 0.78 186.5V175.97H4.29C5.278 175.97 6.084 175.632 6.708 174.956C7.384 174.28 7.748 173.448 7.8 172.46L10.14 131.9H53.43V186.5H39.39V142.82H23.01L21.06 175.19ZM97.8991 146.72C97.8991 143.6 96.3391 142.04 93.2191 142.04H79.9591C76.8391 142.04 75.2791 143.6 75.2791 146.72V171.68C75.2791 174.8 76.8391 176.36 79.9591 176.36H93.2191C96.3391 176.36 97.8991 174.8 97.8991 171.68V146.72ZM111.939 171.68C111.939 177.14 110.691 181.118 108.195 183.614C105.751 186.058 101.799 187.28 96.3391 187.28H76.8391C71.3791 187.28 67.4011 186.058 64.9051 183.614C62.4611 181.118 61.2391 177.14 61.2391 171.68V146.72C61.2391 141.26 62.4611 137.308 64.9051 134.864C67.4011 132.368 71.3791 131.12 76.8391 131.12H96.3391C101.799 131.12 105.751 132.368 108.195 134.864C110.691 137.308 111.939 141.26 111.939 146.72V171.68ZM161.896 185.72C150.3 186.76 140.68 187.28 133.036 187.28C127.94 187.28 124.196 186.084 121.804 183.692C119.412 181.3 118.216 177.556 118.216 172.46V147.5C118.216 142.04 119.438 138.088 121.882 135.644C124.378 133.148 128.356 131.9 133.816 131.9H161.896V142.82H136.936C133.816 142.82 132.256 144.38 132.256 147.5V172.46C132.256 173.656 132.594 174.618 133.27 175.346C133.998 176.022 134.908 176.36 136 176.36C137.092 176.36 138.288 176.36 139.588 176.36C140.888 176.308 142.24 176.256 143.644 176.204C145.048 176.152 146.452 176.1 147.856 176.048C149.312 175.996 151.158 175.892 153.394 175.736C155.682 175.58 158.516 175.398 161.896 175.19V185.72ZM163.444 164.66V153.74H195.424V164.66H163.444ZM230.127 131.9H245.727L228.177 159.2L246.117 186.5H230.517L219.597 169.34L208.677 186.5H193.077L211.017 159.2L193.467 131.9H208.989L219.597 149.06L230.127 131.9ZM259.78 186.5H244.57L265.24 131.9H280.84L301.51 186.5H286.3L282.79 176.75H263.29L259.78 186.5ZM266.8 166.61H279.28L273.04 148.28L266.8 166.61ZM305.407 131.9H336.607C341.703 131.9 345.447 133.07 347.839 135.41C350.231 137.698 351.427 141.208 351.427 145.94C351.427 149.06 350.751 151.608 349.399 153.584C348.047 155.508 346.383 156.86 344.407 157.64C348.619 158.784 351.479 161.592 352.987 166.064C353.507 167.676 353.767 169.548 353.767 171.68C353.767 176.776 352.571 180.52 350.179 182.912C347.787 185.304 344.043 186.5 338.947 186.5H305.407V131.9ZM339.727 169.34C339.727 166.22 338.167 164.66 335.047 164.66H319.447V175.58H335.047C338.167 175.58 339.727 174.02 339.727 170.9V169.34ZM337.387 147.5C337.387 144.38 335.827 142.82 332.707 142.82H319.447V153.74H332.707C335.827 153.74 337.387 152.18 337.387 149.06V147.5ZM402.904 185.72C391.308 186.76 381.688 187.28 374.044 187.28C368.948 187.28 365.204 186.084 362.812 183.692C360.42 181.3 359.224 177.556 359.224 172.46V147.5C359.224 142.04 360.446 138.088 362.89 135.644C365.386 133.148 369.364 131.9 374.824 131.9H402.904V142.82H377.944C374.824 142.82 373.264 144.38 373.264 147.5V172.46C373.264 173.656 373.602 174.618 374.278 175.346C375.006 176.022 375.916 176.36 377.008 176.36C378.1 176.36 379.296 176.36 380.596 176.36C381.896 176.308 383.248 176.256 384.652 176.204C386.056 176.152 387.46 176.1 388.864 176.048C390.32 175.996 392.166 175.892 394.402 175.736C396.69 175.58 399.524 175.398 402.904 175.19V185.72ZM448.933 131.12C450.233 131.12 452.573 131.38 455.953 131.9V142.43H452.833C452.053 142.43 451.351 142.69 450.727 143.21C450.103 143.678 449.635 144.198 449.323 144.77L441.913 158.81L457.123 186.5H442.303L430.213 164.27H423.193V186.5H409.153V131.9H423.193V153.35H430.213L438.013 138.53C439.157 136.346 440.561 134.578 442.225 133.226C443.941 131.822 446.177 131.12 448.933 131.12Z" fill="white"/>
<path d="M182.5 56L179 46L343 0L346.5 10L182.5 56Z" fill="white"/>
<path d="M218 95.5L215 85L431.5 22.5L436.5 33L218 95.5Z" fill="white"/>
<path d="M290.5 113H252.5L477.5 49.5L482 59.5L290.5 113Z" fill="white"/>
<path d="M409.5 111.5H372L577.5 56L581.5 66L409.5 111.5Z" fill="white"/>
</svg>
